<svg width="11px" height="19px" viewBox="0 0 11 19" version="1.1" xmlns="http://www.w3.org/2000/svg" xmlns:xlink="http://www.w3.org/1999/xlink">
    <g id="Symbols" stroke="none" stroke-width="1" fill="none" fill-rule="evenodd">
        <g id="Footer" transform="translate(-1422.000000, -34.000000)" fill="#ffffff">
            <g id="facebook-logo">
                <g transform="translate(1422.000000, 34.000000)">
                    <path d="M10.5857723,0.503745201 L7.94737247,0.5 C4.98322077,0.5 3.06765572,2.23870978 3.06765572,4.92982429 L3.06765572,6.9722699 L0.414862707,6.9722699 C0.185629895,6.9722699 0,7.13668425 0,7.33948691 L0,10.2987578 C0,10.5015605 0.185841559,10.6657876 0.414862707,10.6657876 L3.06765572,10.6657876 L3.06765572,18.1329703 C3.06765572,18.3357729 3.25328561,18.5 3.48251842,18.5 L6.94365872,18.5 C7.17289153,18.5 7.35852143,18.3355857 7.35852143,18.1329703 L7.35852143,10.6657876 L10.4602552,10.6657876 C10.689488,10.6657876 10.8751179,10.5015605 10.8751179,10.2987578 L10.8763878,7.33948691 C10.8763878,7.24211167 10.8325733,7.14885615 10.7548923,7.07994445 C10.6772114,7.01103274 10.5713791,6.9722699 10.4613135,6.9722699 L7.35852143,6.9722699 L7.35852143,5.24086327 C7.35852143,4.4086795 7.58267429,3.98622078 8.80800092,3.98622078 L10.585349,3.985659 C10.8143701,3.985659 11,3.82124466 11,3.61862926 L11,0.870774945 C11,0.668346806 10.8145818,0.504119722 10.5857723,0.503745201 Z" id="Path"></path>
                </g>
            </g>
        </g>
    </g>
</svg>
